<svg width="65" height="65" viewBox="0 0 17.198 17.198" version="1.1" xmlns:xlink="http://www.w3.org/1999/xlink" xmlns="http://www.w3.org/2000/svg">
  <defs id="defs2">
    <linearGradient id="linearGradient62681">
      <stop offset="0" id="stop62677" stop-color="#5c27fe" stop-opacity="1"/>
      <stop offset="1" id="stop62679" stop-color="#c165dd" stop-opacity="1"/>
    </linearGradient>
    <linearGradient xlink:href="#linearGradient62681" id="linearGradient63067" gradientUnits="userSpaceOnUse" gradientTransform="matrix(.26097 0 0 .26276 845.28 211.196)" x1="-2958.166" y1="-320.167" x2="-2884.962" y2="-244.638"/>
  </defs>
  <g transform="translate(-73.433 -127.228)">
    <path d="M77.595 127.228c-1.087 0-1.859.19-2.317.573a1.698 1.698 0 0 0-.53.712c-.118.277-.19.52-.216.731-.013.198-.02.468-.02.81v3.203c0 .527-.11.922-.333 1.186-.17.184-.42.303-.746.356v2.055c.327.053.576.172.746.357.222.263.333.658.333 1.185v3.203c0 .343.006.612.02.81.026.211.098.455.216.731.117.29.294.528.53.712.458.383 1.23.574 2.317.574.418 0 .837-.013 1.256-.04v-2.056h-.354c-.772 0-1.256-.099-1.452-.297-.17-.17-.256-.474-.256-.909v-2.827c0-.672-.078-1.172-.235-1.501-.157-.343-.471-.666-.942-.97.47-.303.785-.619.942-.948.157-.343.235-.85.235-1.522v-2.827c0-.435.086-.738.256-.91.196-.197.68-.296 1.452-.296h.354v-2.056c-.419-.026-.838-.04-1.256-.04zm8.873 0c-.419 0-.837.013-1.256.04v2.055h.353c.773 0 1.257.099 1.453.297.17.171.255.474.255.91v2.826c0 .672.078 1.18.236 1.522.157.33.47.646.942.949-.471.303-.785.626-.942.969-.158.329-.236.83-.236 1.502v2.826c0 .435-.085.738-.255.91-.196.197-.68.296-1.453.296h-.353v2.056c.419.027.837.04 1.256.04 1.087 0 1.859-.191 2.317-.573.236-.185.412-.423.53-.713.118-.276.183-.52.197-.73.026-.198.038-.468.038-.811v-3.202c0-.528.112-.923.335-1.186.17-.185.418-.304.745-.357v-2.056c-.327-.052-.575-.17-.745-.355-.223-.264-.335-.66-.335-1.186v-3.203c0-.342-.012-.612-.038-.81a2.27 2.27 0 0 0-.197-.731 1.698 1.698 0 0 0-.53-.712c-.458-.382-1.23-.573-2.317-.573zm-4.436 4.487c-.432 0-.799.152-1.1.455-.288.29-.432.652-.432 1.087 0 .435.144.804.432 1.107.301.29.668.435 1.1.435a1.46 1.46 0 0 0 1.08-.435c.3-.303.45-.672.45-1.107 0-.435-.15-.797-.45-1.087a1.427 1.427 0 0 0-1.08-.455zm0 6.03c-.432 0-.799.151-1.1.454-.288.29-.432.652-.432 1.087 0 .435.144.804.432 1.107.301.29.668.435 1.1.435a1.46 1.46 0 0 0 1.08-.435c.3-.303.45-.672.45-1.107 0-.435-.15-.797-.45-1.087a1.427 1.427 0 0 0-1.08-.455z" fill="url(#linearGradient63067)" fill-opacity="1" stroke-width=".492"/>
  </g>
</svg>
